<svg width="352" height="94" viewBox="0 0 352 94" fill="none" xmlns="http://www.w3.org/2000/svg">
<mask id="path-1-outside-1_193_624" maskUnits="userSpaceOnUse" x="-0.00781255" y="0.988281" width="352" height="93" fill="black">
<rect fill="white" x="-0.00781255" y="0.988281" width="352" height="93"/>
<path fill-rule="evenodd" clip-rule="evenodd" d="M15.5229 47.6285C16.3842 48.7188 16.3842 50.2578 15.5229 51.3481L3.99219 65.9428L3.99219 69.9883C3.99219 81.034 12.9465 89.9883 23.9922 89.9883L327.992 89.9883C339.038 89.9883 347.992 81.034 347.992 69.9883L347.992 24.9883C347.992 13.9426 339.038 4.98828 327.992 4.98828L23.9922 4.98827C12.9465 4.98827 3.99219 13.9426 3.99219 24.9883L3.99219 33.0338L15.5229 47.6285Z"/>
</mask>
<path fill-rule="evenodd" clip-rule="evenodd" d="M15.5229 47.6285C16.3842 48.7188 16.3842 50.2578 15.5229 51.3481L3.99219 65.9428L3.99219 69.9883C3.99219 81.034 12.9465 89.9883 23.9922 89.9883L327.992 89.9883C339.038 89.9883 347.992 81.034 347.992 69.9883L347.992 24.9883C347.992 13.9426 339.038 4.98828 327.992 4.98828L23.9922 4.98827C12.9465 4.98827 3.99219 13.9426 3.99219 24.9883L3.99219 33.0338L15.5229 47.6285Z" fill="#444444"/>
<path d="M15.5229 51.3481L12.3842 48.8683L12.3842 48.8684L15.5229 51.3481ZM15.5229 47.6285L12.3842 50.1082L12.3842 50.1082L15.5229 47.6285ZM3.99219 65.9428L0.853549 63.4631L-0.0078122 64.5533L-0.00781221 65.9428L3.99219 65.9428ZM3.99219 69.9883L-0.00781226 69.9883L3.99219 69.9883ZM347.992 69.9883L343.992 69.9883L347.992 69.9883ZM347.992 24.9883L351.992 24.9883L347.992 24.9883ZM3.99219 33.0338L-0.00781182 33.0338L-0.00781184 34.4233L0.85355 35.5135L3.99219 33.0338ZM18.6615 53.8278C20.6713 51.2839 20.6713 47.6927 18.6615 45.1488L12.3842 50.1082C12.0971 49.7448 12.0971 49.2318 12.3842 48.8683L18.6615 53.8278ZM7.13083 68.4225L18.6615 53.8278L12.3842 48.8684L0.853549 63.4631L7.13083 68.4225ZM7.99219 69.9883L7.99219 65.9428L-0.00781221 65.9428L-0.00781226 69.9883L7.99219 69.9883ZM23.9922 85.9883C15.1556 85.9883 7.99219 78.8248 7.99219 69.9883L-0.00781226 69.9883C-0.00781242 83.2431 10.7374 93.9883 23.9922 93.9883L23.9922 85.9883ZM327.992 85.9883L23.9922 85.9883L23.9922 93.9883L327.992 93.9883L327.992 85.9883ZM343.992 69.9883C343.992 78.8248 336.829 85.9883 327.992 85.9883L327.992 93.9883C341.247 93.9883 351.992 83.2431 351.992 69.9883L343.992 69.9883ZM343.992 24.9883L343.992 69.9883L351.992 69.9883L351.992 24.9883L343.992 24.9883ZM327.992 8.98828C336.829 8.98828 343.992 16.1517 343.992 24.9883L351.992 24.9883C351.992 11.7334 341.247 0.988278 327.992 0.988277L327.992 8.98828ZM23.9922 8.98827L327.992 8.98828L327.992 0.988277L23.9922 0.988274L23.9922 8.98827ZM7.99219 24.9883C7.99219 16.1517 15.1556 8.98827 23.9922 8.98827L23.9922 0.988274C10.7374 0.988274 -0.00781157 11.7334 -0.00781172 24.9883L7.99219 24.9883ZM7.99219 33.0338L7.99219 24.9883L-0.00781172 24.9883L-0.00781182 33.0338L7.99219 33.0338ZM18.6615 45.1488L7.13083 30.5541L0.85355 35.5135L12.3842 50.1082L18.6615 45.1488Z" fill="#474747" fill-opacity="0.35" mask="url(#path-1-outside-1_193_624)"/>
</svg>
